<?xml version="1.0"?>
<svg width="24" height="24" xmlns="http://www.w3.org/2000/svg" xmlns:svg="http://www.w3.org/2000/svg">
 <defs>
  <linearGradient id="paint2_linear" x1="0.5" x2="0.5" y1="0" y2="1">
   <stop stop-color="#B6F829"/>
   <stop offset="1" stop-color="#67DD0A"/>
  </linearGradient>
 </defs>
 <g class="layer">
  <title>Layer 1</title>
  <path d="m17.5,4.5c-1.95,0 -4.05,0.4 -5.5,1.5c-1.45,-1.1 -3.55,-1.5 -5.5,-1.5c-1.45,0 -2.99,0.22 -4.28,0.79c-0.73,0.33 -1.22,1.04 -1.22,1.85l0,11.28c0,1.3 1.22,2.26 2.48,1.94c0.98,-0.25 2.02,-0.36 3.02,-0.36c1.56,0 3.22,0.26 4.56,0.92c0.6,0.3 1.28,0.3 1.87,0c1.34,-0.67 3,-0.92 4.56,-0.92c1,0 2.04,0.11 3.02,0.36c1.26,0.33 2.48,-0.63 2.48,-1.94l0,-11.28c0,-0.81 -0.49,-1.52 -1.22,-1.85c-1.28,-0.57 -2.82,-0.79 -4.27,-0.79zm3.5,12.73c0,0.63 -0.58,1.09 -1.2,0.98c-0.75,-0.14 -1.53,-0.2 -2.3,-0.2c-1.7,0 -4.15,0.65 -5.5,1.5l0,-11.51c1.35,-0.85 3.8,-1.5 5.5,-1.5c0.92,0 1.83,0.09 2.7,0.28c0.46,0.1 0.8,0.51 0.8,0.98l0,9.47z" fill="#00a0ea" id="svg_1"/>
  <path d="m13.98,11.01c-0.32,0 -0.61,-0.2 -0.71,-0.52c-0.13,-0.39 0.09,-0.82 0.48,-0.94c1.54,-0.5 3.53,-0.66 5.36,-0.45c0.41,0.05 0.71,0.42 0.66,0.83c-0.05,0.41 -0.42,0.71 -0.83,0.66c-1.62,-0.19 -3.39,-0.04 -4.73,0.39c-0.08,0.01 -0.16,0.03 -0.23,0.03z" fill="#00a0ea" id="svg_2"/>
  <path d="m13.98,13.67c-0.32,0 -0.61,-0.2 -0.71,-0.52c-0.13,-0.39 0.09,-0.82 0.48,-0.94c1.53,-0.5 3.53,-0.66 5.36,-0.45c0.41,0.05 0.71,0.42 0.66,0.83c-0.05,0.41 -0.42,0.71 -0.83,0.66c-1.62,-0.19 -3.39,-0.04 -4.73,0.39c-0.08,0.02 -0.16,0.03 -0.23,0.03z" fill="url(#paint2_linear)" id="svg_3" transform="matrix(1 0 0 1 0 0) translate(160 198)"/>
  <path d="m13.98,16.33c-0.32,0 -0.61,-0.2 -0.71,-0.52c-0.13,-0.39 0.09,-0.82 0.48,-0.94c1.53,-0.5 3.53,-0.66 5.36,-0.45c0.41,0.05 0.71,0.42 0.66,0.83c-0.05,0.41 -0.42,0.7 -0.83,0.66c-1.62,-0.19 -3.39,-0.04 -4.73,0.39c-0.08,0.02 -0.16,0.03 -0.23,0.03z" fill="#00a0ea" id="svg_4"/>
 </g>
</svg>