<?xml version="1.0"?>
<svg width="24" height="24" xmlns="http://www.w3.org/2000/svg" xmlns:svg="http://www.w3.org/2000/svg">

 <g class="layer">
  <title>Layer 1</title>
  <path d="m12.65,15.67c0.14,-0.36 0.05,-0.77 -0.23,-1.05l-2.09,-2.06l0.03,-0.03c1.74,-1.94 2.98,-4.17 3.71,-6.53l1.94,0c0.54,0 0.99,-0.45 0.99,-0.99l0,-0.02c0,-0.54 -0.45,-0.99 -0.99,-0.99l-6.01,0l0,-1c0,-0.55 -0.45,-1 -1,-1c-0.55,0 -1,0.45 -1,1l0,1l-6.01,0c-0.54,0 -0.99,0.45 -0.99,0.99c0,0.55 0.45,0.99 0.99,0.99l10.18,0c-0.67,1.94 -1.73,3.77 -3.17,5.37c-0.81,-0.89 -1.49,-1.86 -2.06,-2.88c-0.16,-0.29 -0.45,-0.47 -0.78,-0.47c-0.69,0 -1.13,0.75 -0.79,1.35c0.63,1.13 1.4,2.21 2.3,3.21l-4.37,4.31c-0.4,0.39 -0.4,1.03 0,1.42c0.39,0.39 1.02,0.39 1.42,0l4.28,-4.29l2.02,2.02c0.51,0.51 1.38,0.32 1.63,-0.35l0,0zm4.85,-5.67c-0.6,0 -1.14,0.37 -1.35,0.94l-3.67,9.8c-0.24,0.61 0.22,1.26 0.87,1.26c0.39,0 0.74,-0.24 0.88,-0.61l0.89,-2.39l4.75,0l0.9,2.39c0.14,0.36 0.49,0.61 0.88,0.61c0.65,0 1.11,-0.65 0.88,-1.26l-3.67,-9.8c-0.22,-0.57 -0.76,-0.94 -1.36,-0.94l0,0zm-1.62,7l1.62,-4.33l1.62,4.33l-3.24,0l0,0z" fill="#00a0ea" id="svg_1"/>
 </g>
</svg>